<?xml version="1.0" encoding="UTF-8" standalone="no"?>
<svg
   class="svglite"
   width="396.85pt"
   height="283.46pt"
   viewBox="0 0 396.85 283.46"
   version="1.1"
   id="svg126"
   sodipodi:docname="skin_penetration_based_on_Guttmann_data_v2.svg"
   inkscape:export-filename="skin_penetration_based_on_Guttmann_data_v2.png"
   inkscape:export-xdpi="600"
   inkscape:export-ydpi="600"
   inkscape:version="1.2.2 (b0a84865, 2022-12-01)"
   xmlns:inkscape="http://www.inkscape.org/namespaces/inkscape"
   xmlns:sodipodi="http://sodipodi.sourceforge.net/DTD/sodipodi-0.dtd"
   xmlns="http://www.w3.org/2000/svg"
   xmlns:svg="http://www.w3.org/2000/svg">
  <sodipodi:namedview
     id="namedview128"
     pagecolor="#ffffff"
     bordercolor="#000000"
     borderopacity="0.25"
     inkscape:showpageshadow="2"
     inkscape:pageopacity="0.0"
     inkscape:pagecheckerboard="0"
     inkscape:deskcolor="#d1d1d1"
     inkscape:document-units="pt"
     showgrid="false"
     inkscape:zoom="0.62442675"
     inkscape:cx="263.44163"
     inkscape:cy="189.77406"
     inkscape:window-width="1440"
     inkscape:window-height="847"
     inkscape:window-x="0"
     inkscape:window-y="25"
     inkscape:window-maximized="1"
     inkscape:current-layer="svg126" />
  <defs
     id="defs4">
    <style
       type="text/css"
       id="style2"><![CDATA[
    .svglite line, .svglite polyline, .svglite polygon, .svglite path, .svglite rect, .svglite circle {
      fill: none;
      stroke: #000000;
      stroke-linecap: round;
      stroke-linejoin: round;
      stroke-miterlimit: 10.00;
    }
    .svglite text {
      white-space: pre;
    }
  ]]></style>
  </defs>
  <defs
     id="defs11">
    <clipPath
       id="cpMC4wMHwzOTYuODV8MC4wMHwyODMuNDY=">
      <rect
         x="0.00"
         y="0.00"
         width="396.85"
         height="283.46"
         id="rect8" />
    </clipPath>
  </defs>
  <defs
     id="defs20">
    <clipPath
       id="cpNTIuOTR8MzkxLjM3fDUuNDh8MjQyLjc5">
      <rect
         x="52.94"
         y="5.48"
         width="338.43"
         height="237.31"
         id="rect17" />
    </clipPath>
  </defs>
  <g
     clip-path="url(#cpNTIuOTR8MzkxLjM3fDUuNDh8MjQyLjc5)"
     id="g46">
    <polyline
       points="189.02,242.79 188.97,242.47 183.62,220.40 179.50,198.01 176.85,186.82 174.63,175.62 172.62,164.43 172.39,163.27 165.98,153.24 160.35,142.04 155.80,130.91 155.72,130.85 140.12,119.66 139.21,119.09 122.62,114.34 106.03,111.61 89.44,112.65 72.85,113.93 56.26,117.46 "
       style="stroke-width: 1.07; stroke-linecap: butt;"
       id="polyline24" />
    <polyline
       points="355.17,242.79 354.87,238.19 352.01,220.40 348.22,198.01 343.91,186.82 339.79,175.62 338.28,171.90 331.39,164.43 321.69,153.40 321.24,153.24 305.10,148.40 288.51,145.81 271.92,147.94 255.33,151.08 248.79,153.24 238.74,157.15 222.15,163.23 205.56,158.21 202.71,153.24 196.36,142.04 190.04,130.85 188.97,129.21 183.65,119.66 177.91,108.46 172.39,98.19 171.53,97.27 159.98,86.07 155.80,82.66 139.21,76.51 131.37,74.88 122.62,73.81 106.03,72.73 89.44,72.64 72.85,72.77 56.26,73.25 "
       style="stroke-width: 1.07; stroke-linecap: butt;"
       id="polyline26" />
    <polyline
       points="388.05,176.82 387.82,175.62 385.40,164.43 382.73,153.24 379.85,142.04 376.58,130.85 372.72,119.66 371.46,116.31 368.54,108.46 363.64,97.27 357.62,86.07 354.87,81.97 346.70,74.88 338.28,69.01 322.75,63.69 321.69,63.39 305.10,62.10 288.51,61.42 271.92,62.12 255.33,63.33 251.99,63.69 238.74,65.34 222.15,67.46 205.56,66.01 201.62,63.69 188.97,58.25 178.53,52.49 172.39,49.55 168.49,48.02 155.80,43.84 153.90,43.54 139.21,41.44 122.62,40.36 106.03,39.53 89.44,39.08 83.89,39.06 72.85,39.03 56.26,38.27 "
       style="stroke-width: 1.07; stroke-linecap: butt;"
       id="polyline28" />
    <line
       x1="52.94"
       y1="52.49"
       x2="391.37"
       y2="52.49"
       style="stroke-width: 1.07; stroke: #FCFCFC; stroke-opacity: 0.30; stroke-dasharray: 1.42,4.27; stroke-linecap: butt;"
       id="line30" />
    <line
       x1="52.94"
       y1="198.01"
       x2="391.37"
       y2="198.01"
       style="stroke-width: 1.07; stroke: #FCFCFC; stroke-opacity: 0.30; stroke-dasharray: 1.42,4.27; stroke-linecap: butt;"
       id="line32" />
    <polygon
       points="76.96,35.42 101.91,35.42 101.83,35.42 102.17,35.41 102.51,35.34 102.84,35.21 103.14,35.04 103.41,34.82 103.64,34.56 103.83,34.27 103.96,33.95 104.05,33.61 104.07,33.26 104.07,33.26 104.07,22.47 104.07,22.47 104.05,22.12 103.96,21.79 103.83,21.47 103.64,21.17 103.41,20.91 103.14,20.69 102.84,20.52 102.51,20.40 102.17,20.33 101.91,20.31 76.96,20.31 77.22,20.33 76.87,20.31 76.53,20.35 76.19,20.45 75.88,20.60 75.59,20.80 75.34,21.04 75.13,21.32 74.97,21.62 74.86,21.95 74.81,22.30 74.80,22.47 74.80,33.26 74.81,33.09 74.81,33.44 74.86,33.78 74.97,34.11 75.13,34.42 75.34,34.70 75.59,34.94 75.88,35.13 76.19,35.28 76.53,35.38 76.87,35.42 "
       style="stroke-width: 0.53; fill: #FFFFFF;"
       id="polygon34" />
    <text
       x="89.44"
       y="31.82"
       text-anchor="middle"
       style="font-size: 11.04px; font-family: &quot;Arial&quot;;"
       textLength="22.08px"
       lengthAdjust="spacingAndGlyphs"
       id="text36">50%</text>
    <polygon
       points="76.96,69.00 101.91,69.00 101.83,69.00 102.17,68.99 102.51,68.92 102.84,68.80 103.14,68.62 103.41,68.40 103.64,68.14 103.83,67.85 103.96,67.53 104.05,67.19 104.07,66.84 104.07,66.84 104.07,56.05 104.07,56.05 104.05,55.71 103.96,55.37 103.83,55.05 103.64,54.75 103.41,54.49 103.14,54.27 102.84,54.10 102.51,53.98 102.17,53.91 101.91,53.89 76.96,53.89 77.22,53.91 76.87,53.89 76.53,53.94 76.19,54.03 75.88,54.18 75.59,54.38 75.34,54.62 75.13,54.90 74.97,55.21 74.86,55.53 74.81,55.88 74.80,56.05 74.80,66.84 74.81,66.67 74.81,67.02 74.86,67.36 74.97,67.69 75.13,68.00 75.34,68.28 75.59,68.52 75.88,68.72 76.19,68.86 76.53,68.96 76.87,69.00 "
       style="stroke-width: 0.53; fill: #FFFFFF;"
       id="polygon38" />
    <text
       x="89.44"
       y="65.40"
       text-anchor="middle"
       style="font-size: 11.04px; font-family: &quot;Arial&quot;;"
       textLength="22.08px"
       lengthAdjust="spacingAndGlyphs"
       id="text40">10%</text>
    <polygon
       points="76.71,109.30 95.53,109.30 95.44,109.30 95.79,109.29 96.13,109.22 96.45,109.09 96.76,108.92 97.02,108.70 97.26,108.44 97.44,108.15 97.58,107.83 97.66,107.49 97.69,107.14 97.69,107.14 97.69,96.35 97.69,96.35 97.66,96.00 97.58,95.67 97.44,95.35 97.26,95.05 97.02,94.79 96.76,94.57 96.45,94.40 96.13,94.27 95.79,94.20 95.53,94.19 76.71,94.19 76.97,94.20 76.62,94.19 76.28,94.23 75.94,94.33 75.63,94.48 75.34,94.68 75.09,94.92 74.88,95.19 74.72,95.50 74.61,95.83 74.55,96.18 74.55,96.35 74.55,107.14 74.55,106.97 74.55,107.32 74.61,107.66 74.72,107.99 74.88,108.30 75.09,108.57 75.34,108.82 75.63,109.01 75.94,109.16 76.28,109.26 76.62,109.30 "
       style="stroke-width: 0.53; fill: #FFFFFF;"
       id="polygon42" />
    <text
       x="86.12"
       y="105.70"
       text-anchor="middle"
       style="font-size: 11.04px; font-family: &quot;Arial&quot;;"
       textLength="15.94px"
       lengthAdjust="spacingAndGlyphs"
       id="text44">1%</text>
  </g>
  <g
     clip-path="url(#cpMC4wMHwzOTYuODV8MC4wMHwyODMuNDY=)"
     id="g124">
    <polyline
       points="52.94,242.79 52.94,5.48 "
       style="stroke-width: 1.07; stroke-linecap: butt;"
       id="polyline48" />
    <text
       x="46.49"
       y="20.26"
       text-anchor="end"
       style="font-size: 10.00px;fill: #4D4D4D; font-family: &quot;Arial&quot;;"
       textLength="5.56px"
       lengthAdjust="spacingAndGlyphs"
       id="text50">0</text>
    <text
       x="46.49"
       y="42.65"
       text-anchor="end"
       style="font-size: 10.00px;fill: #4D4D4D; font-family: &quot;Arial&quot;;"
       textLength="11.12px"
       lengthAdjust="spacingAndGlyphs"
       id="text52">10</text>
    <text
       x="46.49"
       y="65.04"
       text-anchor="end"
       style="font-size: 10.00px;fill: #4D4D4D; font-family: &quot;Arial&quot;;"
       textLength="11.12px"
       lengthAdjust="spacingAndGlyphs"
       id="text54">20</text>
    <text
       x="46.49"
       y="87.42"
       text-anchor="end"
       style="font-size: 10.00px;fill: #4D4D4D; font-family: &quot;Arial&quot;;"
       textLength="11.12px"
       lengthAdjust="spacingAndGlyphs"
       id="text56">30</text>
    <text
       x="46.49"
       y="109.81"
       text-anchor="end"
       style="font-size: 10.00px;fill: #4D4D4D; font-family: &quot;Arial&quot;;"
       textLength="11.12px"
       lengthAdjust="spacingAndGlyphs"
       id="text58">40</text>
    <text
       x="46.49"
       y="132.20"
       text-anchor="end"
       style="font-size: 10.00px;fill: #4D4D4D; font-family: &quot;Arial&quot;;"
       textLength="11.12px"
       lengthAdjust="spacingAndGlyphs"
       id="text60">50</text>
    <text
       x="46.49"
       y="154.59"
       text-anchor="end"
       style="font-size: 10.00px;fill: #4D4D4D; font-family: &quot;Arial&quot;;"
       textLength="11.12px"
       lengthAdjust="spacingAndGlyphs"
       id="text62">60</text>
    <text
       x="46.49"
       y="176.97"
       text-anchor="end"
       style="font-size: 10.00px;fill: #4D4D4D; font-family: &quot;Arial&quot;;"
       textLength="11.12px"
       lengthAdjust="spacingAndGlyphs"
       id="text64">70</text>
    <text
       x="46.49"
       y="199.36"
       text-anchor="end"
       style="font-size: 10.00px;fill: #4D4D4D; font-family: &quot;Arial&quot;;"
       textLength="11.12px"
       lengthAdjust="spacingAndGlyphs"
       id="text66">80</text>
    <text
       x="46.49"
       y="221.75"
       text-anchor="end"
       style="font-size: 10.00px;fill: #4D4D4D; font-family: &quot;Arial&quot;;"
       textLength="11.12px"
       lengthAdjust="spacingAndGlyphs"
       id="text68">90</text>
    <text
       x="46.49"
       y="244.14"
       text-anchor="end"
       style="font-size: 10.00px;fill: #4D4D4D; font-family: &quot;Arial&quot;;"
       textLength="16.68px"
       lengthAdjust="spacingAndGlyphs"
       id="text70">100</text>
    <polyline
       points="48.69,16.67 52.94,16.67 "
       style="stroke-width: 1.07; stroke: #333333; stroke-linecap: butt;"
       id="polyline72" />
    <polyline
       points="48.69,39.06 52.94,39.06 "
       style="stroke-width: 1.07; stroke: #333333; stroke-linecap: butt;"
       id="polyline74" />
    <polyline
       points="48.69,61.45 52.94,61.45 "
       style="stroke-width: 1.07; stroke: #333333; stroke-linecap: butt;"
       id="polyline76" />
    <polyline
       points="48.69,83.84 52.94,83.84 "
       style="stroke-width: 1.07; stroke: #333333; stroke-linecap: butt;"
       id="polyline78" />
    <polyline
       points="48.69,106.22 52.94,106.22 "
       style="stroke-width: 1.07; stroke: #333333; stroke-linecap: butt;"
       id="polyline80" />
    <polyline
       points="48.69,128.61 52.94,128.61 "
       style="stroke-width: 1.07; stroke: #333333; stroke-linecap: butt;"
       id="polyline82" />
    <polyline
       points="48.69,151.00 52.94,151.00 "
       style="stroke-width: 1.07; stroke: #333333; stroke-linecap: butt;"
       id="polyline84" />
    <polyline
       points="48.69,173.39 52.94,173.39 "
       style="stroke-width: 1.07; stroke: #333333; stroke-linecap: butt;"
       id="polyline86" />
    <polyline
       points="48.69,195.77 52.94,195.77 "
       style="stroke-width: 1.07; stroke: #333333; stroke-linecap: butt;"
       id="polyline88" />
    <polyline
       points="48.69,218.16 52.94,218.16 "
       style="stroke-width: 1.07; stroke: #333333; stroke-linecap: butt;"
       id="polyline90" />
    <polyline
       points="48.69,240.55 52.94,240.55 "
       style="stroke-width: 1.07; stroke: #333333; stroke-linecap: butt;"
       id="polyline92" />
    <polyline
       points="52.94,242.79 391.37,242.79 "
       style="stroke-width: 1.07; stroke-linecap: butt;"
       id="polyline94" />
    <polyline
       points="56.26,247.04 56.26,242.79 "
       style="stroke-width: 1.07; stroke: #333333; stroke-linecap: butt;"
       id="polyline96" />
    <polyline
       points="122.62,247.04 122.62,242.79 "
       style="stroke-width: 1.07; stroke: #333333; stroke-linecap: butt;"
       id="polyline98" />
    <polyline
       points="188.97,247.04 188.97,242.79 "
       style="stroke-width: 1.07; stroke: #333333; stroke-linecap: butt;"
       id="polyline100" />
    <polyline
       points="255.33,247.04 255.33,242.79 "
       style="stroke-width: 1.07; stroke: #333333; stroke-linecap: butt;"
       id="polyline102" />
    <polyline
       points="321.69,247.04 321.69,242.79 "
       style="stroke-width: 1.07; stroke: #333333; stroke-linecap: butt;"
       id="polyline104" />
    <polyline
       points="388.05,247.04 388.05,242.79 "
       style="stroke-width: 1.07; stroke: #333333; stroke-linecap: butt;"
       id="polyline106" />
    <text
       x="56.26"
       y="256.41"
       text-anchor="middle"
       style="font-size: 10.00px;fill: #4D4D4D; font-family: &quot;Arial&quot;;"
       textLength="16.68px"
       lengthAdjust="spacingAndGlyphs"
       id="text108">200</text>
    <text
       x="122.62"
       y="256.41"
       text-anchor="middle"
       style="font-size: 10.00px;fill: #4D4D4D; font-family: &quot;Arial&quot;;"
       textLength="16.68px"
       lengthAdjust="spacingAndGlyphs"
       id="text110">220</text>
    <text
       x="188.97"
       y="256.41"
       text-anchor="middle"
       style="font-size: 10.00px;fill: #4D4D4D; font-family: &quot;Arial&quot;;"
       textLength="16.68px"
       lengthAdjust="spacingAndGlyphs"
       id="text112">240</text>
    <text
       x="255.33"
       y="256.41"
       text-anchor="middle"
       style="font-size: 10.00px;fill: #4D4D4D; font-family: &quot;Arial&quot;;"
       textLength="16.68px"
       lengthAdjust="spacingAndGlyphs"
       id="text114">260</text>
    <text
       x="321.69"
       y="256.41"
       text-anchor="middle"
       style="font-size: 10.00px;fill: #4D4D4D; font-family: &quot;Arial&quot;;"
       textLength="16.68px"
       lengthAdjust="spacingAndGlyphs"
       id="text116">280</text>
    <text
       x="388.05"
       y="256.41"
       text-anchor="middle"
       style="font-size: 10.00px;fill: #4D4D4D; font-family: &quot;Arial&quot;;"
       textLength="16.68px"
       lengthAdjust="spacingAndGlyphs"
       id="text118">300</text>
    <text
       x="222.15"
       y="275.77"
       text-anchor="middle"
       style="font-size: 10.00px; font-family: &quot;Arial&quot;;"
       textLength="75.02px"
       lengthAdjust="spacingAndGlyphs"
       id="text120">Wavelength [nm]</text>
    <text
       transform="translate(12.66,124.13) rotate(-90)"
       text-anchor="middle"
       style="font-size: 10.00px; font-family: &quot;Arial&quot;;"
       textLength="49.10px"
       lengthAdjust="spacingAndGlyphs"
       id="text122">Depth [µm]</text>
  </g>
</svg>
